<svg width="17" height="19" viewBox="0 0 17 19" fill="none" xmlns="http://www.w3.org/2000/svg">
<path d="M12.1992 12.2656L11.8228 12.7716L12.2567 13.2292L16.1921 17.38C16.1921 17.3801 16.1921 17.3801 16.1922 17.3802C16.2249 17.4148 16.25 17.4702 16.25 17.5361C16.25 17.602 16.2248 17.6574 16.1921 17.6921C16.1607 17.7253 16.1272 17.7356 16.1018 17.7356C16.0765 17.7356 16.0432 17.7254 16.0119 17.6925C16.0118 17.6924 16.0117 17.6922 16.0115 17.6921L12.0851 13.5318L11.6017 13.0197L11.0602 13.4698C9.94254 14.3989 8.56763 14.8979 7.15804 14.8947H7.15636C5.89889 14.8947 4.66592 14.5008 3.61321 13.7572C2.55992 13.0132 1.73293 11.9512 1.24306 10.7009C0.75308 9.45044 0.624319 8.07224 0.874576 6.74222C1.12481 5.41232 1.74157 4.19611 2.6409 3.24538C3.53982 2.2951 4.67993 1.65309 5.91456 1.39348C7.14881 1.13394 8.42864 1.26671 9.59414 1.77706C10.7602 2.28766 11.7637 3.15539 12.4727 4.27712C13.1819 5.39922 13.5627 6.72254 13.5627 8.07945L13.5627 8.08095C13.5658 9.60314 13.083 11.0773 12.1992 12.2656ZM2.82443 12.6578L4.11349 13.9904V13.6497C5.02888 14.2019 6.07558 14.5024 7.15566 14.5034V14.5034L7.16231 14.5034C8.59013 14.4921 9.96384 13.9571 11.05 12.9993C12.1352 12.0424 12.8659 10.7238 13.127 9.27237C13.388 7.82119 13.1653 6.3177 12.4932 5.01637C11.8208 3.71443 10.7367 2.68994 9.41769 2.12757C8.09758 1.56474 6.63098 1.50314 5.27135 1.95459C3.91266 2.40573 2.75365 3.33799 1.98496 4.5816C1.21671 5.82451 0.88273 7.30561 1.03454 8.77345C1.18636 10.2414 1.8158 11.6151 2.82443 12.6578Z" fill="#979797" stroke="#3199FE" stroke-width="1.5"/>
</svg>
